<?xml version="1.0" encoding="utf-8"?>
<!-- Generator: Adobe Illustrator 17.0.0, SVG Export Plug-In . SVG Version: 6.00 Build 0)  -->
<!DOCTYPE svg PUBLIC "-//W3C//DTD SVG 1.1//EN" "http://www.w3.org/Graphics/SVG/1.1/DTD/svg11.dtd">
<svg version="1.1" id="Layer_1" xmlns="http://www.w3.org/2000/svg" xmlns:xlink="http://www.w3.org/1999/xlink" x="0px" y="0px"
	 width="288px" height="288px" viewBox="0 0 288 288" enable-background="new 0 0 288 288" xml:space="preserve">
<path fill="#693948" d="M262.739,229.8c0,10.328-5.271,18.7-11.774,18.7H45.038c-6.503,0-11.774-8.372-11.774-18.7V48.251
	c0-10.328,5.271-18.7,11.774-18.7h205.927c6.503,0,11.774,8.372,11.774,18.7V229.8z"/>
<path fill="#FFFFFF" stroke="#FFFFFF" stroke-width="1.0025" stroke-miterlimit="10" d="M256.52,229.24
	c0,7.323-5.356,13.26-11.963,13.26H35.325c-6.607,0-11.963-5.937-11.963-13.26V100.51c0-7.323,5.356-13.26,11.963-13.26h209.232
	c6.607,0,11.963,5.937,11.963,13.26V229.24z"/>
<path fill="#ED162C" d="M23.362,116.082H257.24v-68.98c0,0-1.224-13.469-16.735-17.551H42.954c0,0-15.102,1.633-19.592,17.551
	V116.082z"/>
<path fill="#FFFFFF" stroke="#ED162C" stroke-width="2" stroke-miterlimit="10" d="M243.978,222.336
	c0,6.857-5.427,12.415-12.121,12.415H51.201c-6.694,0-12.121-5.559-12.121-12.415v-84.965c0-6.857,5.427-12.415,12.121-12.415
	h180.657c6.694,0,12.121,5.559,12.121,12.415V222.336z"/>
<path fill="#EF4A50" d="M239.484,134.44c0,4.617-3.19,8.359-7.125,8.359H48.243c-3.935,0-7.125-3.743-7.125-8.359l0,0
	c0-4.617,3.19-8.359,7.125-8.359h184.117C236.294,126.081,239.484,129.824,239.484,134.44L239.484,134.44z"/>
<path fill="#EF4A50" d="M42.541,129.69c0,0-4.552,4.977-3.463,13.143l7.256,1.259L42.541,129.69z"/>
<path fill="#EF4A50" d="M226,129.833l1.167,11.667l3.5,2.5h12.667c0,0,3.333-21.169-13.833-17.918
	C212.333,129.333,226,129.833,226,129.833z"/>
<line fill="none" stroke="#ED162C" stroke-width="2.7321" stroke-miterlimit="10" x1="39.081" y1="161.33" x2="243.977" y2="161.039"/>
<line fill="none" stroke="#ED162C" stroke-width="2.7321" stroke-miterlimit="10" x1="39.25" y1="143.237" x2="244.147" y2="142.945"/>
<line fill="none" stroke="#ED162C" stroke-width="2.7321" stroke-miterlimit="10" x1="39.084" y1="179.57" x2="243.981" y2="179.278"/>
<line fill="none" stroke="#ED162C" stroke-width="2.7321" stroke-miterlimit="10" x1="39.088" y1="197.809" x2="243.984" y2="197.517"/>
<line fill="none" stroke="#ED162C" stroke-width="2.7321" stroke-miterlimit="10" x1="39.091" y1="216.048" x2="243.987" y2="215.757"/>
<line fill="none" stroke="#ED162C" stroke-width="2" stroke-miterlimit="10" x1="107.204" y1="124.955" x2="107.204" y2="234.751"/>
<line fill="none" stroke="#ED162C" stroke-width="2" stroke-miterlimit="10" x1="73.327" y1="124.38" x2="73.327" y2="234.176"/>
<line fill="none" stroke="#ED162C" stroke-width="2" stroke-miterlimit="10" x1="140.673" y1="124.955" x2="140.673" y2="234.751"/>
<line fill="none" stroke="#ED162C" stroke-width="2" stroke-miterlimit="10" x1="174.143" y1="124.955" x2="174.143" y2="234.751"/>
<line fill="none" stroke="#ED162C" stroke-width="2" stroke-miterlimit="10" x1="207.612" y1="124.955" x2="207.612" y2="234.751"/>
<path fill="#EF424A" d="M33.333,57.002c0,0,2.668-20.667,22-18.667l175-0.136c0,0,17.333,2.47,18.333,20.136
	c0,0,3.771-17.668-16.448-23.667H50.333C50.333,34.667,32,36.668,33.333,57.002z"/>
<path fill="#693948" d="M210.288,69.066c0,6.627-5.373,12-12,12h-11.333c-6.627,0-12-5.373-12-12v-42c0-6.627,5.373-12,12-12h11.333
	c6.627,0,12,5.373,12,12V69.066z"/>
<path fill="#693948" d="M111.334,69.406c0,6.627-5.373,12-12,12H88.001c-6.627,0-12-5.373-12-12v-42c0-6.627,5.373-12,12-12h11.333
	c6.627,0,12,5.373,12,12V69.406z"/>
<path fill="#FFFFFF" d="M108.66,65.5c0,6.627-5.373,12-12,12H85.327c-6.627,0-12-5.373-12-12v-42c0-6.627,5.373-12,12-12H96.66
	c6.627,0,12,5.373,12,12V65.5z"/>
<path fill="#FFFFFF" d="M207.612,65.5c0,6.627-5.373,12-12,12h-11.333c-6.627,0-12-5.373-12-12v-42c0-6.627,5.373-12,12-12h11.333
	c6.627,0,12,5.373,12,12V65.5z"/>
<path fill="#D5DCEB" d="M84.886,73.844c0,0,23.75,8.184,22.25-16.816C107.136,57.027,106.136,76.41,84.886,73.844z"/>
<path fill="#D5DCEB" d="M233.591,239.348c0,0,24.844,3.714,18.809-20.593C252.4,218.755,254.952,237.995,233.591,239.348z"/>
<path fill="#D5DCEB" d="M48.567,119.787c0,0-25.065-1.661-17.054,22.068C31.513,141.855,27.389,122.89,48.567,119.787z"/>
</svg>
