<?xml version="1.0" encoding="utf-8"?>
<!-- Generator: Adobe Illustrator 17.0.0, SVG Export Plug-In . SVG Version: 6.00 Build 0)  -->
<!DOCTYPE svg PUBLIC "-//W3C//DTD SVG 1.1//EN" "http://www.w3.org/Graphics/SVG/1.1/DTD/svg11.dtd">
<svg version="1.1" id="Layer_1" xmlns="http://www.w3.org/2000/svg" xmlns:xlink="http://www.w3.org/1999/xlink" x="0px" y="0px"
	 width="288px" height="288px" viewBox="0 0 288 288" enable-background="new 0 0 288 288" xml:space="preserve">
<circle fill="#FFFFFF" cx="142.499" cy="142.254" r="137.25"/>
<g>
	<path fill="#45C6EE" d="M22.098,125.699c0,0,25.891,27.083,69.179-14.492c0,0,42.003,52.289,84.434,0
		c0,0,45.298,49.201,82.867-4.33c0,0-19.212-80.104-116.187-86.104C142.392,20.773,43.353,17.183,22.098,125.699z"/>
	<path fill="#45C6EE" d="M20.986,142.178c0,0,41.334,24.267,69.724-13.175c0,0,38.265,46.083,88.463,0c0,0,49.662,42.51,82.64-8.781
		c0,0,14.82,58.02-31.441,105.611c0,0-30.215,35.933-82.675,37.751c0,0-59.23,6.458-104.295-51.1
		C43.402,212.484,19.563,181.275,20.986,142.178z"/>
	<rect x="118.381" y="164.009" fill="#45C6EE" width="41.043" height="22.219"/>
	<text transform="matrix(1 0 0 1 118.3841 183.4492)" fill="#FFFFFF" font-family="'NexaLight'" font-size="27.7733">La</text>
	<rect x="70.55" y="192.573" fill="none" width="160.468" height="47.523"/>
	<text transform="matrix(1 0 0 1 70.5511 225.7949)" fill="#FFFFFF" font-family="'NexaBold'" font-size="47.5231">Flaque</text>
</g>
</svg>
