<?xml version="1.0" encoding="utf-8"?>
<!-- Generator: Adobe Illustrator 17.0.0, SVG Export Plug-In . SVG Version: 6.00 Build 0)  -->
<!DOCTYPE svg PUBLIC "-//W3C//DTD SVG 1.1//EN" "http://www.w3.org/Graphics/SVG/1.1/DTD/svg11.dtd">
<svg version="1.1" id="Layer_1" xmlns="http://www.w3.org/2000/svg" xmlns:xlink="http://www.w3.org/1999/xlink" x="0px" y="0px"
	 width="288px" height="288px" viewBox="0 0 288 288" enable-background="new 0 0 288 288" xml:space="preserve">
<g>
	<polygon fill="#EC1C24" points="228.058,217.55 61.348,215.289 75.216,158.011 214.191,158.011 	"/>
	<polygon fill="#951B1E" points="169.966,158.727 175.392,217.195 188.054,218.793 182.326,158.727 	"/>
	<polygon fill="#5E1016" points="112.988,158.085 142.079,180.606 129.008,158.085 	"/>
	<polygon fill="#951B1E" points="61.348,215.289 61.348,218.831 225.433,220.338 228.058,217.55 	"/>
	<polygon fill="#EE434A" points="172.677,158.011 178.103,214.573 190.765,216.118 185.037,158.011 	"/>
	<polygon fill="#FFFFFF" points="216.691,182.655 219.102,193.207 78.62,193.207 86.157,159.443 96.105,159.443 90.076,184.464 	"/>
	<polyline fill="#5E1016" points="91.79,177.352 90.076,184.464 216.691,182.655 	"/>
	<path fill="#951B1E" d="M143.284,183.107l-29.242-50.646c0,0-12.36-22.911-12.963-34.367c0,0-3.015-37.683,24.419-49.742
		c0,0,38.889-16.581,56.072,21.102c0,0,16.279,23.514-9.647,64.513L143.284,183.107z"/>
	<ellipse fill="#FFFFFF" cx="144.703" cy="90.25" rx="16.43" ry="18.397"/>
	<circle fill="none" stroke="#EC1C24" stroke-width="7" stroke-miterlimit="10" cx="145.707" cy="146.453" r="132.727"/>
</g>
</svg>
