<?xml version="1.0" encoding="utf-8"?>
<!-- Generator: Adobe Illustrator 17.0.0, SVG Export Plug-In . SVG Version: 6.00 Build 0)  -->
<!DOCTYPE svg PUBLIC "-//W3C//DTD SVG 1.1//EN" "http://www.w3.org/Graphics/SVG/1.1/DTD/svg11.dtd">
<svg version="1.1" id="Layer_1" xmlns="http://www.w3.org/2000/svg" xmlns:xlink="http://www.w3.org/1999/xlink" x="0px" y="0px"
	 width="288px" height="288px" viewBox="0 0 288 288" enable-background="new 0 0 288 288" xml:space="preserve">
<g>
	<path fill="#EC1B2F" d="M134.054,70.707l12.963,22.804c0,0,9.122,7.201-4.321,12.963l-10.562,5.761c0,0-3.361,2.881-5.281-1.92
		c0,0-13.923,6.241-12.963,23.044c0.96,16.803-0.047,1.92-0.047,1.92s9.265,34.087,18.099,39.128c0,0,15.555,20.884,33.799,13.203
		c0,0,3.361-1.44,3.361-6.241l3.841-4.801l13.443-7.681c0,0,4.801-1.92,10.082,8.642l20.644,36.007c0,0,4.321,6.721-7.201,12.963
		c0,0-9.122,10.082-13.923,3.361c0,0-13.177,13.443-30.113,10.562c0,0-34.7-12.482-59.184-56.171c0,0-45.129-73.454-27.845-100.819
		c0,0,11.522-15.843,21.604-18.244c0,0-3.361-5.281,12.482-12.002c0,0,7.681-8.642,12.963,2.881L134.054,70.707z"/>
	<path fill="#EC1B2F" d="M99.832,63.843"/>
	<path fill="#EF4B50" d="M127.892,113.41c0,0,3.082,5.651,14.384-3.596c0,0,16.952-1.541,6.678-17.98L124.81,52.279
		c0,0-5.137-7.192-13.356,0c0,0-14.384,5.158-12.329,11.055L127.892,113.41z"/>
	<path fill="#EF4B50" d="M176.019,172.334c0,0-14.57,3.768-3.015,18.338l23.614,40.194c0,0,3.517,4.019,16.58-5.527
		c0,0,10.048-0.502,6.029-11.556l-24.865-44.715c0,0-8.762-4.915-15.329,0L176.019,172.334z"/>
	<path fill="#5E0E18" d="M168.549,184.434l26.822,45.752l-43.928-41.727C151.442,188.459,161.89,191.972,168.549,184.434z"/>
	<polyline fill="#5E0E18" points="100.312,65.273 126.718,110.642 86.768,74.296 	"/>
	<circle fill="none" stroke="#EC1B2F" stroke-width="7" stroke-miterlimit="10" cx="144.401" cy="143.449" r="133.386"/>
</g>
<path fill="#FFFFFF" d="M82.667,92.333c0,0-0.167,89.667,82.833,142.667C165.5,235,95.667,189.667,82.667,92.333z"/>
</svg>
