<?xml version="1.0" encoding="utf-8"?>
<!-- Generator: Adobe Illustrator 17.0.0, SVG Export Plug-In . SVG Version: 6.00 Build 0)  -->
<!DOCTYPE svg PUBLIC "-//W3C//DTD SVG 1.1//EN" "http://www.w3.org/Graphics/SVG/1.1/DTD/svg11.dtd">
<svg version="1.1" id="Layer_1" xmlns="http://www.w3.org/2000/svg" xmlns:xlink="http://www.w3.org/1999/xlink" x="0px" y="0px"
	 width="288px" height="288px" viewBox="0 0 288 288" enable-background="new 0 0 288 288" xml:space="preserve">
<g>
	<path fill="#693948" d="M196.251,91.783c-8.158-12.24-31.378-21.632-53.028-21.632c-26.044,0-49.891,6.831-49.891,26.756
		c0,18.786,24.789,22.202,51.146,25.048c45.811,5.123,94.76,12.524,94.76,62.62c0,38.426-35.456,60.058-74.365,62.621v28.462h-39.85
		v-27.039c-35.143-2.847-67.776-17.363-82.523-48.673l37.026-14.232c8.472,18.217,36.398,29.887,62.442,29.887
		c28.239,0,54.283-8.824,54.283-31.026c0-18.786-26.044-25.617-55.225-28.749c-44.871-4.554-88.799-11.67-88.799-58.92
		c0-37.287,36.398-54.365,72.796-58.351V13.792h39.85v24.763c26.671,3.701,51.146,12.809,65.266,38.996L196.251,91.783z"/>
</g>
<g>
	<path fill="#ED162C" d="M201.322,86.559c-7.756-12.24-29.832-21.632-50.416-21.632c-24.761,0-47.433,6.831-47.433,26.756
		c0,18.786,23.568,22.202,48.627,25.048c43.554,5.123,90.092,12.524,90.092,62.62c0,38.426-33.71,60.058-70.702,62.621v28.462
		h-37.887v-27.039c-33.412-2.847-64.437-17.363-78.458-48.673l35.202-14.232c8.055,18.217,34.605,29.887,59.366,29.887
		c26.848,0,51.609-8.824,51.609-31.026c0-18.786-24.761-25.617-52.505-28.749c-42.66-4.554-84.425-11.67-84.425-58.92
		c0-37.287,34.605-54.365,69.211-58.351V8.568h37.887v24.763c25.357,3.701,48.627,12.809,62.051,38.996L201.322,86.559z"/>
</g>
<path fill="#F9F9F9" d="M113.833,66.059c0,0-33.146,21.173-5.056,43.687c0,0-19.944-7.773-16.573-24.122
	C92.203,85.624,94.451,73.564,113.833,66.059z"/>
<path fill="#EF424A" d="M192.102,153.425c0,0,33.146,23.643,5.056,48.783c0,0,19.944-8.679,16.573-26.935
	C213.731,175.273,211.484,161.805,192.102,153.425z"/>
<path fill="#EF424A" d="M229.285,68.738l-26.177,12.061c0,0-31.355-29.483-63.993-21.173c0,0,32.76-7.773,63.993,10.989
	C203.108,70.614,214.678,75.439,229.285,68.738z"/>
<path fill="#EF424A" d="M86.869,53.73c0,0-36.798,36.718-1.405,75.849C85.464,129.579,60.745,89.377,86.869,53.73z"/>
<path fill="#FFFFFF" d="M199.509,129.579c0,0,39.326,7.236,38.484,51.191c0,0-0.001,27.336-27.528,45.563
	C210.464,226.334,271.982,169.246,199.509,129.579z"/>
<path fill="#EF424A" d="M61.551,197.01l26.751-11.629c0,0-30.83,16.616,1.333,41.326C89.636,226.707,68.044,215.413,61.551,197.01z"
	/>
<path fill="#EF424A" d="M151.756,10.848h-14.607v15.545C137.149,26.393,133.497,10.044,151.756,10.848z"/>
<path fill="#EF424A" d="M136.868,246.033v21.709h22.964C159.832,267.742,136.236,269.954,136.868,246.033z"/>
<path fill="#FCFAFA" d="M218.758,60.431c0,0-6.608-16.885-39.473-22.245C179.284,38.185,209.635,47.566,218.758,60.431z"/>
<path fill="#FCFAFA" d="M167.487,12.188v16.617h-4.775C162.711,28.805,167.767,20.764,167.487,12.188z"/>
<path fill="#FCFAFA" d="M168.891,266.335h-5.056c0,0,5.899-5.829,5.056-15.076V266.335z"/>
<path fill="#FFFFFF" d="M97.264,195.765c0,0,22.689,23.157,63.903,17.316C161.167,213.082,118.098,226.928,97.264,195.765z"/>
</svg>
