<?xml version="1.0" encoding="utf-8"?>
<!-- Generator: Adobe Illustrator 17.0.0, SVG Export Plug-In . SVG Version: 6.00 Build 0)  -->
<!DOCTYPE svg PUBLIC "-//W3C//DTD SVG 1.1//EN" "http://www.w3.org/Graphics/SVG/1.1/DTD/svg11.dtd">
<svg version="1.1" id="Layer_1" xmlns="http://www.w3.org/2000/svg" xmlns:xlink="http://www.w3.org/1999/xlink" x="0px" y="0px"
	 width="288px" height="288px" viewBox="0 0 288 288" enable-background="new 0 0 288 288" xml:space="preserve">
<g>
	<path fill="#ED1C24" d="M144,8.841c70.064,0,126.862,56.798,126.862,126.862c0,70.064-56.798,126.862-126.862,126.862
		c-70.064,0-126.862-56.798-126.862-126.862C17.138,65.64,73.936,8.841,144,8.841L144,8.841z"/>
	<path fill="#FCFAFB" d="M79.807,91.474c0,0,9.601-12.277,11.805-13.851c0,0-10.073-18.573-37.303-31.007
		c0,0-11.647,12.749-12.592,13.536C41.716,60.152,74.298,82.975,79.807,91.474L79.807,91.474z"/>
	<path fill="#FCFAFB" d="M185.682,70.711c0,0,11.469,5.098,14.495,10.69c0,0,25.486-37.003,29.786-39.306
		c0,0-8.283-7.565-14.336-12.006C215.627,30.089,195.08,50.976,185.682,70.711L185.682,70.711z"/>
	<path fill="#FCFAFB" d="M202.419,188.903c0,0,9.916-10.703,10.388-14.795c0,0,6.334-0.603,16.937,8.229
		c0.229,0.191,0.46,0.385,0.692,0.585c10.469,8.974,21.364,16.526,22.424,20.362c0.055,0.201,0.084,0.392,0.084,0.572
		c0,3.62-6.611,6.768-11.175,14.953C241.768,218.809,210.761,188.431,202.419,188.903L202.419,188.903z"/>
	<path fill="#FCFAFB" d="M87.834,188.117c0,0,6.925,8.183,14.481,12.118c0,0-28.174,30.063-31.322,38.877
		c0,0-14.323-9.759-14.953-11.805C56.04,227.308,82.797,189.851,87.834,188.117L87.834,188.117z"/>
	<path fill="#FCFAFB" d="M77.916,61.751l2.449,2.238c0,0,60.511-51.055,114.498-9.345l0.217,0.701l4.347-4.224
		c0,0-26.915-21.031-58.867-16.781C140.562,34.339,93.969,44.146,77.916,61.751L77.916,61.751z"/>
	<path fill="#683849" d="M91.611,77.623c0,0,44.701-36.516,95.225-8.657l2.204-6.296c0,0-49.32-30.577-99.424,11.863L91.611,77.623
		L91.611,77.623z"/>
	<g>
		<defs>
			<rect id="SVGID_1_" x="17.138" y="8.841" width="253.724" height="253.724"/>
		</defs>
		<clipPath id="SVGID_2_">
			<use xlink:href="#SVGID_1_"  overflow="visible"/>
		</clipPath>
		<path clip-path="url(#SVGID_2_)" fill="#683849" d="M204.562,74.458l-3.402,4.74c0,0,40.451,44.071,11.647,94.91
			c0,0,3.327,0.358,4.738,0.886c0,0,29.103-54.908-12.135-100.536"/>
		<path clip-path="url(#SVGID_2_)" fill="#F04D4D" d="M222.473,50.537l-8.136,10.605c0,0,58.28,50.119,13.343,119.554l16.165,13.23
			C243.846,193.925,288.014,99.945,222.473,50.537L222.473,50.537z"/>
		<path clip-path="url(#SVGID_2_)" fill="#EF4544" d="M216.337,196.454l14.256,11.938c0,0-65.477,65.257-151.416,18.398
			l12.434-13.175C91.611,213.615,171.859,242.567,216.337,196.454L216.337,196.454z"/>
	</g>
	<path fill="#F9F9FA" d="M77.916,198.356c0,0-49.18-65.644-10.896-119.159l-1.944-1.574c0,0-44.766,56.682,8.749,120.733
		l2.238,2.295L77.916,198.356L77.916,198.356z"/>
	<path fill="#F4F2F2" d="M144.63,57.791c44.885,0,81.272,34.882,81.272,77.912s-36.387,77.912-81.272,77.912
		s-81.272-34.882-81.272-77.912S99.745,57.791,144.63,57.791L144.63,57.791z"/>
	<path fill="#D5DBEB" d="M216.561,30.786l-5.065,4.865c0,0,10.598,8.709,11.333,10.598c0.735,1.889-0.42,0-0.42,0l1.154,0.839
		l6.4-5.876L216.561,30.786L216.561,30.786z"/>
	<polygon fill="#D5DBEB" points="249.586,200.813 240.352,214.874 242.31,217.876 251.684,203.017 249.586,200.813 	"/>
	<polygon fill="#D5DBEB" points="88.096,74.37 77.916,86.332 79.807,89.795 90.458,77.623 88.096,74.37 	"/>
</g>
<line fill="#FFFFFF" stroke="#F9F7F7" stroke-width="2" stroke-miterlimit="10" x1="42.055" y1="59.925" x2="54.07" y2="46.575"/>
</svg>
