<?xml version="1.0" encoding="utf-8"?>
<!-- Generator: Adobe Illustrator 17.0.0, SVG Export Plug-In . SVG Version: 6.00 Build 0)  -->
<!DOCTYPE svg PUBLIC "-//W3C//DTD SVG 1.1//EN" "http://www.w3.org/Graphics/SVG/1.1/DTD/svg11.dtd">
<svg version="1.1" id="Layer_1" xmlns="http://www.w3.org/2000/svg" xmlns:xlink="http://www.w3.org/1999/xlink" x="0px" y="0px"
	 width="288px" height="288px" viewBox="0 0 288 288" enable-background="new 0 0 288 288" xml:space="preserve">
<g>
	<path fill="#EC1B2F" d="M120.507,131.138l2.676-44.871c0,0,1.029-5.763,12.967-4.94c0,0,10.909-0.617,12.967,3.499l1.029,3.499
		c0,0,13.294,0.19,19.998,2.394c0.275,0.09,0.539,0.184,0.791,0.282c6.381,2.47,21.612,2.47,26.964,11.321l1.235,25.523
		c0,0,14.408-2.058,15.849-1.029l2.264,1.235c0,0,9.468,11.526,10.086,19.965v1.852c0,0-0.617,5.557-21.612,11.732s-0.823,0-0.823,0
		s-6.998,4.734-33.55,9.262c0,0-26.346,7.41-59.896,4.94c0,0-39.108-1.029-62.778-15.231c0,0-11.115-6.587-9.468-12.761
		c0,0-0.823-2.264,2.676-5.352c0,0,6.792-6.587,10.497-8.027l8.439-3.087C60.817,131.344,104.864,129.285,120.507,131.138z"/>
	<path fill="#EF4B50" d="M140.885,97.588l-7.699,2.676c0,0,3.171,9.262,41.455,6.998c0,0,16.878,1.029,18.525-2.47
		C193.165,104.792,183.697,100.263,140.885,97.588z"/>
	<path fill="#EF4B50" d="M149.735,90.795v3.293c0,0,45.986,3.797,47.111,6.749c0,0-2.24-7.984-46.699-12.512
		C150.147,88.325,151.588,90.59,149.735,90.795z"/>
	<path fill="#5E0E18" d="M199.752,128.777v6.683c0,0,9.056-3.087,9.674-5.352h-4.837l3.602-1.332H199.752z"/>
	<path fill="#EF4B50" d="M53.822,158.718c0,0-0.823-8.645,6.792-7.822c0,0-8.943-4.903-8.851-9.468c0,0-5.084,1.365-7.07,10.459
		L53.822,158.718z"/>
	<path fill="#EF4B50" d="M215.602,132.369c0,0,9.78,10.936,6.998,15.231h-4.528l-2.47-7.616v-6.792V132.369z"/>
	<path fill="#A41D2F" d="M119.478,152.956h4.528v1.441c0,0-53.721,4.528-66.894-7.822c0,0-6.175-4.734,1.852-6.998
		c0,0,51.869-4.117,60.514-1.852l-0.617,15.231H119.478z"/>
	<path fill="#FFFFFF" d="M128.329,154.383v0.63c0,0,59.485-7.204,73.069-18.113l-1.647-0.68c0,0-33.962,15.294-71.423,17.352
		V154.383z"/>
	<path fill="#FFFFFF" d="M40.569,143.802c0,0-6.613,4.419-4.554,12.241c0,0,2.058,8.439,18.113,15.643s53.741,17.29,109.048,9.468
		c0,0,49.338-9.674,60.247-19.142c0,0,4.117-0.823,6.381-6.175c0,0,3.087-4.94-2.47-7.822c0,0,7.41,6.894-34.168,18.061
		c0,0-39.317,10.28-55.78,10.23c0,0-43.055-0.23-51.167-3.249c0,0-28.348-5.061-36.727-12.007c0,0-11.11-4.39-10.287-13.241
		C39.205,147.81,37.956,146.365,40.569,143.802z"/>
	<path fill="#EC1B2F" d="M227.333,159.627c0,0-2.882,20.292-36.226,33.26c0,0-31.492,10.086-76.157,5.146
		c0,0-34.991-5.352-46.929-11.321c0,0-19.373-8.337-24.288-17.084l-3.571-7.225c0,0,21.868,17.723,59.134,20.295
		c0,0,59.518,3.552,90.763-7.791C190.059,174.908,218.276,168.151,227.333,159.627z"/>
	<circle fill="none" stroke="#FFFFFF" stroke-width="3.2933" stroke-miterlimit="10" cx="143.414" cy="118.553" r="7.464"/>
	<circle fill="none" stroke="#FFFFFF" stroke-width="3.7049" stroke-miterlimit="10" cx="169.936" cy="120.197" r="8.408"/>
	<path fill="#A41D2F" d="M124.007,152.956v1.441c0,0,60.179-6.585,76.607-19.244C200.613,135.152,164.111,151.45,124.007,152.956z"
		/>
	<path fill="#5E0E18" d="M40.157,145.862c0,0-3.534,3.872,0,8.317c0,0,16.3,23.074,81.784,22.694c0,0,49.824,1.782,85.12-14.978
		c0,0,18.212-4.205,20.065-11.409l-0.206-1.647c0,0-36.024,27.17-104.767,24.905c0,0-54.748-0.207-71.627-14.203
		c0,0-10.641-5.003-9.129-13.101L40.157,145.862z"/>
	<path fill="#A41D2F" d="M130.387,115.29l1.029-14.202c0,0,3.824-0.455,11.998-5.27V93.06l-13.027,1.441l-2.058,20.789H130.387z"/>
	<circle fill="none" stroke="#EC1B2F" stroke-width="7" stroke-miterlimit="10" cx="142.93" cy="144.143" r="131.851"/>
</g>
</svg>
